HIERARCHY
ROOT hip
{
	OFFSET 0.000000 0.000000 0.000000 
	CHANNELS 6 Xposition Yposition Zposition Zrotation Yrotation Xrotation
	JOINT abdomen
	{
		OFFSET 0.000000 20.688101 -0.731520 
		CHANNELS 3 Zrotation Xrotation Yrotation
		JOINT chest
		{
			OFFSET 0.000000 11.704300 -0.487680 
			CHANNELS 3 Zrotation Xrotation Yrotation
			JOINT neck
			{
				OFFSET 0.000000 22.189400 -2.194560 
				CHANNELS 3 Zrotation Xrotation Yrotation
				JOINT head
				{
					OFFSET -0.243840 7.071330 1.219200 
					CHANNELS 3 Zrotation Xrotation Yrotation
					End Site
					{
						OFFSET 1.000000 0.000000 0.000000 
					}
				}
			}
			JOINT rCollar
			{
				OFFSET -2.682240 19.263399 -4.876800 
				CHANNELS 3 Zrotation Xrotation Yrotation
				JOINT rShldr
				{
					OFFSET -8.778240 -1.950730 1.463040 
					CHANNELS 3 Zrotation Xrotation Yrotation
					JOINT rForeArm
					{
						OFFSET -28.174200 -1.711500 0.487680 
						CHANNELS 3 Zrotation Xrotation Yrotation
						JOINT rHand
						{
							OFFSET -22.587900 0.773209 7.071360 
							CHANNELS 3 Zrotation Xrotation Yrotation
							End Site
							{
								OFFSET -1.692250 -0.517670 -0.607171 
							}
						}
					}
				}
			}
			JOINT lCollar
			{
				OFFSET 2.682240 19.263399 -4.876800 
				CHANNELS 3 Zrotation Xrotation Yrotation
				JOINT lShldr
				{
					OFFSET 8.778240 -1.950730 1.463040 
					CHANNELS 3 Zrotation Xrotation Yrotation
					JOINT lForeArm
					{
						OFFSET 28.174200 -1.711500 0.487680 
						CHANNELS 3 Zrotation Xrotation Yrotation
						JOINT lHand
						{
							OFFSET 22.587900 0.773209 7.071360 
							CHANNELS 3 Zrotation Xrotation Yrotation
							End Site
							{
								OFFSET 1.692250 -0.517670 -0.607171 
							}
						}
					}
				}
			}
		}
	}
	JOINT rButtock
	{
		OFFSET -8.778240 4.350840 1.219200 
		CHANNELS 3 Zrotation Xrotation Yrotation
		JOINT rThigh
		{
			OFFSET 0.000000 -1.706870 -2.194560 
			CHANNELS 3 Zrotation Xrotation Yrotation
			JOINT rShin
			{
				OFFSET 0.000000 -36.819901 0.731520 
				CHANNELS 3 Zrotation Xrotation Yrotation
				JOINT rFoot
				{
					OFFSET 0.731520 -45.110401 -5.120640 
					CHANNELS 3 Zrotation Xrotation Yrotation
					End Site
					{
						OFFSET -1.122100 -3.699640 12.103000 
					}
				}
			}
		}
	}
	JOINT lButtock
	{
		OFFSET 8.778240 4.350840 1.219200 
		CHANNELS 3 Zrotation Xrotation Yrotation
		JOINT lThigh
		{
			OFFSET 0.000000 -1.706870 -2.194560 
			CHANNELS 3 Zrotation Xrotation Yrotation
			JOINT lShin
			{
				OFFSET 0.000000 -36.819901 0.731520 
				CHANNELS 3 Zrotation Xrotation Yrotation
				JOINT lFoot
				{
					OFFSET -0.731520 -45.110401 -5.120640 
					CHANNELS 3 Zrotation Xrotation Yrotation
					End Site
					{
						OFFSET 1.122100 -3.699640 12.103000 
					}
				}
			}
		}
	}
}
MOTION
Frames: 14
Frame Time: 0.008333
5.366160 83.888298 12.487400 2.058500 -33.723000 -1.443500 -0.149182 2.236980 -0.013778 0.849034 -0.132979 0.046659 -7.386240 6.629890 -1.554690 4.328940 -19.256001 -1.142710 -0.000000 -0.000000 -0.000000 74.950401 35.446701 0.860147 -8.859300 -3.476340 15.679200 -0.092817 8.673630 1.228450 -0.000000 -0.000000 -0.000000 -72.722702 37.926498 -5.254620 14.285500 -7.187070 -26.130800 0.033058 5.140740 -0.724508 -0.000000 0.000000 -0.000000 1.916690 -11.817900 19.238400 -0.161506 31.008400 0.565988 -5.320020 -16.471100 -14.027500 0.000000 0.000000 0.000000 3.411640 -0.826207 0.030465 0.104933 25.050800 -0.585159 7.985810 -15.695600 21.063999 
5.125800 83.876602 12.562000 1.903800 -33.709499 -1.695600 -0.142139 2.085460 0.069867 0.894337 -0.110803 0.074816 -7.447580 6.967290 -1.521790 4.383310 -19.170300 -1.104930 -0.000000 -0.000000 -0.000000 74.554001 35.891701 1.098990 -8.857030 -3.475070 15.674900 -0.106104 9.255980 1.312380 -0.000000 -0.000000 -0.000000 -72.622002 38.350899 -5.466370 14.241600 -7.151000 -26.041800 0.033741 5.220590 -0.735786 -0.000000 0.000000 -0.000000 2.109690 -11.400200 19.193300 -0.162602 31.122900 0.568058 -5.350630 -16.612801 -14.032800 0.000000 0.000000 0.000000 3.705600 -0.629878 0.250779 0.109805 25.482901 -0.587065 7.787440 -15.446600 20.757799 
4.822170 83.855598 12.587400 1.445600 -33.854599 -1.780400 -0.169091 1.924980 0.127677 0.933124 -0.081255 0.094852 -7.484330 7.276560 -1.492420 4.395460 -19.024500 -1.084360 -0.000000 -0.000000 -0.000000 74.065102 36.291401 1.407760 -8.868950 -3.481780 15.696900 -0.119628 9.814970 1.393200 -0.000000 -0.000000 -0.000000 -72.468697 38.771000 -5.733310 14.190300 -7.109120 -25.937799 0.033992 5.255210 -0.740670 -0.000000 0.000000 -0.000000 2.246230 -10.997000 19.087500 -0.164231 31.270000 0.570625 -5.365050 -16.750900 -13.995600 0.000000 0.000000 0.000000 3.962870 -0.424362 0.442303 0.114661 25.912001 -0.589144 7.586260 -15.230300 20.409100 
4.569470 83.826202 12.639300 1.197300 -33.838100 -2.030900 -0.234202 1.757450 0.141447 0.964584 -0.043080 0.101229 -7.481650 7.535970 -1.470170 4.331740 -18.786301 -1.094340 -0.000000 -0.000000 -0.000000 73.473701 36.653999 1.791800 -8.894800 -3.496200 15.744600 -0.133851 10.394700 1.477170 -0.000000 -0.000000 -0.000000 -72.260399 39.194000 -6.062930 14.129900 -7.059990 -25.815701 0.033290 5.200130 -0.732865 -0.000000 0.000000 -0.000000 2.304860 -10.609400 18.881500 -0.166505 31.454300 0.573633 -5.352460 -16.887600 -13.886400 0.000000 0.000000 0.000000 4.175690 -0.205636 0.587358 0.119420 26.334999 -0.591507 7.381450 -15.078800 19.987700 
4.380610 83.792900 12.760100 1.345000 -33.692200 -2.549100 -0.322461 1.573790 0.132096 0.995893 -0.001443 0.100535 -7.454020 7.763940 -1.450520 4.215940 -18.465200 -1.121600 -0.000000 -0.000000 0.000000 72.794800 36.972000 2.231530 -8.933710 -3.517900 15.816700 -0.150933 11.040500 1.571130 -0.000000 -0.000000 0.000000 -72.014099 39.613899 -6.436330 14.056600 -7.000350 -25.667700 0.032339 5.123320 -0.721984 -0.000000 0.000000 -0.000000 2.320120 -10.231700 18.614201 -0.169212 31.662901 0.576787 -5.318360 -17.022800 -13.722200 0.000000 0.000000 0.000000 4.365850 0.017128 0.700504 0.124250 26.764700 -0.594507 7.179340 -14.976700 19.523899 
4.170810 83.754303 12.916800 1.512000 -33.572201 -3.054500 -0.436483 1.376520 0.124921 1.023520 0.044709 0.100291 -7.423620 7.995540 -1.428780 4.106430 -18.126600 -1.145970 -0.000000 -0.000000 0.000000 72.037598 37.229801 2.730980 -8.986790 -3.547730 15.914800 -0.167805 11.619100 1.655810 -0.000000 -0.000000 0.000000 -71.717003 40.016800 -6.854420 13.976700 -6.935680 -25.507099 0.031730 5.073830 -0.714974 -0.000000 0.000000 -0.000000 2.318760 -9.864030 18.345699 -0.172296 31.895000 0.580468 -5.281840 -17.151800 -13.556000 0.000000 0.000000 0.000000 4.535400 0.241735 0.810631 0.129232 27.198900 -0.597640 6.976310 -14.862800 19.061899 
3.967290 83.711502 13.025800 1.625900 -33.487701 -3.399200 -0.578546 1.168180 0.145210 1.043920 0.096427 0.108020 -7.412750 8.265870 -1.400250 4.060980 -17.835699 -1.147450 -0.000000 -0.000000 0.000000 71.212196 37.411900 3.293540 -9.055150 -3.586570 16.041100 -0.179862 11.997600 1.711490 -0.000000 -0.000000 0.000000 -71.356796 40.389301 -7.317750 13.896900 -6.871510 -25.346800 0.032016 5.100740 -0.718781 -0.000000 0.000000 -0.000000 2.325880 -9.507090 18.136000 -0.175709 32.150101 0.585061 -5.262520 -17.269899 -13.441500 0.000000 0.000000 0.000000 4.685900 0.465984 0.946629 0.134429 27.635500 -0.600392 6.770210 -14.676100 18.646500 
3.787110 83.673401 13.100600 1.865500 -33.501900 -3.802600 -0.774757 0.942580 0.204611 1.057350 0.154543 0.126897 -7.432290 8.603750 -1.364950 4.103520 -17.634800 -1.122670 0.000000 0.000000 0.000000 70.322998 37.526600 3.919450 -9.138450 -3.634000 16.195299 -0.182621 12.074500 1.722870 0.000000 0.000000 0.000000 -70.905403 40.743198 -7.845730 13.819800 -6.809930 -25.192301 0.033507 5.218440 -0.735459 -0.000000 0.000000 -0.000000 2.332950 -9.177530 18.007500 -0.179737 32.447899 0.591380 -5.271170 -17.377001 -13.404300 0.000000 0.000000 0.000000 4.796640 0.689944 1.114720 0.139712 28.063299 -0.602352 6.560840 -14.391800 18.296301 
3.589220 83.640701 13.223100 2.132000 -33.487900 -4.385800 -1.014880 0.700659 0.287995 1.065270 0.218312 0.152521 -7.468940 8.983990 -1.324940 4.200070 -17.480600 -1.081710 0.000000 0.000000 0.000000 69.367203 37.576500 4.605120 -9.236100 -3.689710 16.376801 -0.178505 11.942700 1.703490 0.000000 0.000000 0.000000 -70.376297 41.079201 -8.432560 13.741700 -6.747750 -25.035900 0.035974 5.400330 -0.761255 -0.000000 0.000000 -0.000000 2.329930 -8.870150 17.925400 -0.184363 32.782001 0.599022 -5.295990 -17.475300 -13.412300 0.000000 0.000000 0.000000 4.873440 0.914555 1.300010 0.145077 28.486900 -0.603875 6.350370 -14.045400 17.986000 
3.346770 83.608498 13.307000 2.148200 -33.479401 -4.817400 -1.246620 0.455649 0.380485 1.065880 0.286420 0.181047 -7.508860 9.360610 -1.278570 4.321200 -17.310900 -1.024910 0.000000 0.000000 0.000000 68.346199 37.537300 5.346770 -9.348740 -3.754600 16.586201 -0.172819 11.760900 1.676750 0.000000 0.000000 0.000000 -69.821800 41.367699 -9.039100 13.659300 -6.682710 -24.871401 0.039206 5.633950 -0.794402 -0.000000 0.000000 -0.000000 2.339040 -8.553160 17.864500 -0.189047 33.112999 0.606522 -5.322860 -17.563299 -13.431900 0.000000 0.000000 0.000000 4.957490 1.138910 1.499700 0.150782 28.928200 -0.605612 6.140790 -13.666300 17.694300 
3.111440 83.584602 13.417000 2.212000 -33.442402 -5.253000 -1.417970 0.220780 0.467207 1.057390 0.357552 0.208628 -7.538070 9.687630 -1.224160 4.437230 -17.063101 -0.952658 0.000000 0.000000 -0.000000 67.263603 37.384899 6.139350 -9.476960 -3.829550 16.824301 -0.170521 11.687500 1.665970 0.000000 0.000000 -0.000000 -69.297203 41.580002 -9.624240 13.569700 -6.612470 -24.692400 0.042984 5.906840 -0.833135 -0.000000 0.000000 -0.000000 2.383270 -8.194560 17.799700 -0.193184 33.401501 0.612372 -5.337420 -17.639799 -13.429300 0.000000 0.000000 0.000000 5.090010 1.362100 1.711000 0.157114 29.408701 -0.608231 5.933960 -13.283800 17.399900 
2.869920 83.562500 13.538100 2.300500 -33.447701 -5.763200 -1.521240 0.002165 0.552752 1.039090 0.441154 0.236659 -7.546970 9.938440 -1.155370 4.545740 -16.701099 -0.852090 0.000000 0.000000 -0.000000 66.131302 37.068199 6.980600 -9.619960 -3.913790 17.090599 -0.173252 11.781200 1.679700 0.000000 0.000000 -0.000000 -68.809402 41.711201 -10.185100 13.467300 -6.532790 -24.488001 0.047998 6.261120 -0.883459 -0.000000 0.000000 -0.000000 2.466020 -7.773790 17.729300 -0.196531 33.633999 0.616002 -5.335070 -17.694000 -13.399300 0.000000 0.000000 0.000000 5.275950 1.604020 1.951070 0.164044 29.923100 -0.611703 5.732630 -12.901400 17.107000 
2.601870 83.537697 13.608800 2.287600 -33.657799 -6.182600 -1.582090 -0.208112 0.642206 1.011980 0.534662 0.266383 -7.544980 10.142300 -1.075030 4.659460 -16.264700 -0.727702 -0.000000 0.000000 -0.000000 64.956703 36.614101 7.865860 -9.777320 -4.006990 17.385000 -0.178362 11.951900 1.704750 -0.000000 0.000000 -0.000000 -68.336098 41.776299 -10.737600 13.355000 -6.445950 -24.264601 0.054672 6.688280 -0.944250 -0.000000 0.000000 -0.000000 2.576000 -7.311920 17.665300 -0.199383 33.832500 0.618235 -5.323700 -17.730000 -13.358600 0.000000 0.000000 0.000000 5.494680 1.858390 2.215460 0.171493 30.463600 -0.615775 5.535120 -12.505000 16.823799 
2.335140 83.507797 13.710100 2.294200 -33.828701 -6.643700 -1.599000 -0.417863 0.721439 0.976926 0.618743 0.293735 -7.546570 10.337200 -0.995194 4.771950 -15.805400 -0.605804 -0.000000 0.000000 -0.000000 63.733398 36.114899 8.788410 -9.950070 -4.110700 17.708700 -0.184026 12.135400 1.731740 -0.000000 0.000000 -0.000000 -67.891403 41.777000 -11.267700 13.242800 -6.359580 -24.042101 0.061875 7.099930 -1.002980 -0.000000 0.000000 -0.000000 2.714670 -6.839250 17.603901 -0.201917 34.010799 0.619633 -5.307470 -17.769100 -13.306400 0.000000 0.000000 0.000000 5.750030 2.085090 2.468970 0.179715 31.048100 -0.620811 5.336940 -12.097000 16.534599 
